<svg width="56" height="55" viewBox="0 0 56 55" fill="none" xmlns="http://www.w3.org/2000/svg">
<rect x="0.855469" width="55" height="55" rx="27.5" fill="#C6EBE4" fill-opacity="0.4"/>
<g clip-path="url(#clip0_3868_1623)">
<path d="M22.7997 29.7222C22.7997 30.0169 22.6827 30.2995 22.4743 30.5079C22.2659 30.7163 21.9833 30.8334 21.6886 30.8334H20.5775C20.2828 30.8334 20.0002 30.7163 19.7919 30.5079C19.5835 30.2995 19.4664 30.0169 19.4664 29.7222C19.4664 29.4276 19.5835 29.1449 19.7919 28.9366C20.0002 28.7282 20.2828 28.6111 20.5775 28.6111H21.6886C21.9833 28.6111 22.2659 28.7282 22.4743 28.9366C22.6827 29.1449 22.7997 29.4276 22.7997 29.7222ZM27.2442 28.6111H26.1331C25.8384 28.6111 25.5558 28.7282 25.3474 28.9366C25.139 29.1449 25.022 29.4276 25.022 29.7222C25.022 30.0169 25.139 30.2995 25.3474 30.5079C25.5558 30.7163 25.8384 30.8334 26.1331 30.8334H27.2442C27.5389 30.8334 27.8215 30.7163 28.0299 30.5079C28.2382 30.2995 28.3553 30.0169 28.3553 29.7222C28.3553 29.4276 28.2382 29.1449 28.0299 28.9366C27.8215 28.7282 27.5389 28.6111 27.2442 28.6111ZM21.6886 33.0556H20.5775C20.2828 33.0556 20.0002 33.1726 19.7919 33.381C19.5835 33.5894 19.4664 33.872 19.4664 34.1667C19.4664 34.4614 19.5835 34.744 19.7919 34.9524C20.0002 35.1607 20.2828 35.2778 20.5775 35.2778H21.6886C21.9833 35.2778 22.2659 35.1607 22.4743 34.9524C22.6827 34.744 22.7997 34.4614 22.7997 34.1667C22.7997 33.872 22.6827 33.5894 22.4743 33.381C22.2659 33.1726 21.9833 33.0556 21.6886 33.0556ZM27.2442 33.0556H26.1331C25.8384 33.0556 25.5558 33.1726 25.3474 33.381C25.139 33.5894 25.022 33.872 25.022 34.1667C25.022 34.4614 25.139 34.744 25.3474 34.9524C25.5558 35.1607 25.8384 35.2778 26.1331 35.2778H27.2442C27.5389 35.2778 27.8215 35.1607 28.0299 34.9524C28.2382 34.744 28.3553 34.4614 28.3553 34.1667C28.3553 33.872 28.2382 33.5894 28.0299 33.381C27.8215 33.1726 27.5389 33.0556 27.2442 33.0556ZM21.6886 19.7222H20.5775C20.2828 19.7222 20.0002 19.8393 19.7919 20.0477C19.5835 20.2561 19.4664 20.5387 19.4664 20.8334C19.4664 21.128 19.5835 21.4107 19.7919 21.619C20.0002 21.8274 20.2828 21.9445 20.5775 21.9445H21.6886C21.9833 21.9445 22.2659 21.8274 22.4743 21.619C22.6827 21.4107 22.7997 21.128 22.7997 20.8334C22.7997 20.5387 22.6827 20.2561 22.4743 20.0477C22.2659 19.8393 21.9833 19.7222 21.6886 19.7222ZM27.2442 19.7222H26.1331C25.8384 19.7222 25.5558 19.8393 25.3474 20.0477C25.139 20.2561 25.022 20.5387 25.022 20.8334C25.022 21.128 25.139 21.4107 25.3474 21.619C25.5558 21.8274 25.8384 21.9445 26.1331 21.9445H27.2442C27.5389 21.9445 27.8215 21.8274 28.0299 21.619C28.2382 21.4107 28.3553 21.128 28.3553 20.8334C28.3553 20.5387 28.2382 20.2561 28.0299 20.0477C27.8215 19.8393 27.5389 19.7222 27.2442 19.7222ZM21.6886 24.1667H20.5775C20.2828 24.1667 20.0002 24.2837 19.7919 24.4921C19.5835 24.7005 19.4664 24.9831 19.4664 25.2778C19.4664 25.5725 19.5835 25.8551 19.7919 26.0635C20.0002 26.2718 20.2828 26.3889 20.5775 26.3889H21.6886C21.9833 26.3889 22.2659 26.2718 22.4743 26.0635C22.6827 25.8551 22.7997 25.5725 22.7997 25.2778C22.7997 24.9831 22.6827 24.7005 22.4743 24.4921C22.2659 24.2837 21.9833 24.1667 21.6886 24.1667ZM27.2442 24.1667H26.1331C25.8384 24.1667 25.5558 24.2837 25.3474 24.4921C25.139 24.7005 25.022 24.9831 25.022 25.2778C25.022 25.5725 25.139 25.8551 25.3474 26.0635C25.5558 26.2718 25.8384 26.3889 26.1331 26.3889H27.2442C27.5389 26.3889 27.8215 26.2718 28.0299 26.0635C28.2382 25.8551 28.3553 25.5725 28.3553 25.2778C28.3553 24.9831 28.2382 24.7005 28.0299 24.4921C27.8215 24.2837 27.5389 24.1667 27.2442 24.1667ZM41.6886 25.2778V35.2778C41.6869 36.7507 41.101 38.1627 40.0595 39.2042C39.018 40.2457 37.606 40.8316 36.1331 40.8334H20.5775C19.1046 40.8316 17.6926 40.2457 16.6511 39.2042C15.6096 38.1627 15.0237 36.7507 15.022 35.2778V19.7222C15.0237 18.2494 15.6096 16.8373 16.6511 15.7958C17.6926 14.7543 19.1046 14.1685 20.5775 14.1667H27.2442C28.7171 14.1685 30.1291 14.7543 31.1706 15.7958C32.2121 16.8373 32.798 18.2494 32.7997 19.7222H36.1331C37.606 19.724 39.018 20.3099 40.0595 21.3514C41.101 22.3929 41.6869 23.8049 41.6886 25.2778ZM20.5775 38.6111H30.5775V19.7222C30.5775 18.8382 30.2263 17.9903 29.6012 17.3652C28.9761 16.7401 28.1282 16.3889 27.2442 16.3889H20.5775C19.6935 16.3889 18.8456 16.7401 18.2205 17.3652C17.5954 17.9903 17.2442 18.8382 17.2442 19.7222V35.2778C17.2442 36.1619 17.5954 37.0097 18.2205 37.6348C18.8456 38.2599 19.6935 38.6111 20.5775 38.6111ZM39.4664 25.2778C39.4664 24.3937 39.1152 23.5459 38.4901 22.9208C37.865 22.2957 37.0171 21.9445 36.1331 21.9445H32.7997V38.6111H36.1331C37.0171 38.6111 37.865 38.2599 38.4901 37.6348C39.1152 37.0097 39.4664 36.1619 39.4664 35.2778V25.2778ZM36.1331 28.6111C35.9133 28.6111 35.6985 28.6763 35.5158 28.7984C35.3331 28.9205 35.1906 29.094 35.1066 29.297C35.0225 29.5001 35.0004 29.7235 35.0433 29.939C35.0862 30.1545 35.192 30.3525 35.3474 30.5079C35.5028 30.6633 35.7008 30.7691 35.9163 30.812C36.1318 30.8549 36.3553 30.8329 36.5583 30.7488C36.7613 30.6647 36.9348 30.5223 37.0569 30.3395C37.179 30.1568 37.2442 29.942 37.2442 29.7222C37.2442 29.4276 37.1271 29.1449 36.9188 28.9366C36.7104 28.7282 36.4278 28.6111 36.1331 28.6111ZM36.1331 33.0556C35.9133 33.0556 35.6985 33.1207 35.5158 33.2428C35.3331 33.3649 35.1906 33.5385 35.1066 33.7415C35.0225 33.9445 35.0004 34.1679 35.0433 34.3835C35.0862 34.599 35.192 34.797 35.3474 34.9524C35.5028 35.1078 35.7008 35.2136 35.9163 35.2564C36.1318 35.2993 36.3553 35.2773 36.5583 35.1932C36.7613 35.1091 36.9348 34.9667 37.0569 34.784C37.179 34.6013 37.2442 34.3864 37.2442 34.1667C37.2442 33.872 37.1271 33.5894 36.9188 33.381C36.7104 33.1726 36.4278 33.0556 36.1331 33.0556ZM36.1331 24.1667C35.9133 24.1667 35.6985 24.2319 35.5158 24.3539C35.3331 24.476 35.1906 24.6496 35.1066 24.8526C35.0225 25.0556 35.0004 25.279 35.0433 25.4946C35.0862 25.7101 35.192 25.9081 35.3474 26.0635C35.5028 26.2189 35.7008 26.3247 35.9163 26.3676C36.1318 26.4104 36.3553 26.3884 36.5583 26.3043C36.7613 26.2202 36.9348 26.0778 37.0569 25.8951C37.179 25.7124 37.2442 25.4976 37.2442 25.2778C37.2442 24.9831 37.1271 24.7005 36.9188 24.4921C36.7104 24.2837 36.4278 24.1667 36.1331 24.1667Z" fill="#06C4A2"/>
</g>
<defs>
<clipPath id="clip0_3868_1623">
<rect width="26.6667" height="26.6667" fill="white" transform="translate(15.022 14.1667)"/>
</clipPath>
</defs>
</svg>
