<?xml version="1.0" encoding="UTF-8"?>
<svg xmlns="http://www.w3.org/2000/svg" width="177" height="34" viewBox="0 0 177 34" fill="none">
  <path d="M31.7532 15.8766C31.7532 24.645 24.645 31.7532 15.8766 31.7532C7.10821 31.7532 0 24.645 0 15.8766C0 7.1082 7.10821 0 15.8766 0C24.645 0 31.7532 7.1082 31.7532 15.8766Z" fill="#86FFC9"></path>
  <path d="M27.6371 15.8767C27.6371 22.3718 22.3718 27.6371 15.8767 27.6371C9.38156 27.6371 4.11621 22.3718 4.11621 15.8767C4.11621 9.38146 9.38156 4.11617 15.8767 4.11617C22.3718 4.11617 27.6371 9.38146 27.6371 15.8767Z" fill="#13E989"></path>
  <path d="M50.2115 27.623C48.5768 27.623 47.0647 27.3267 45.6752 26.7342C44.3062 26.1416 43.1006 25.314 42.0585 24.2515C41.0368 23.189 40.2399 21.9425 39.6678 20.5122C39.0956 19.0818 38.8096 17.5187 38.8096 15.8227C38.8096 14.1267 39.0854 12.5635 39.6371 11.1332C40.2093 9.68242 41.0062 8.43598 42.0278 7.39387C43.07 6.33133 44.2857 5.51399 45.6752 4.94185C47.0647 4.34928 48.5768 4.05299 50.2115 4.05299C51.8461 4.05299 53.3071 4.32885 54.5944 4.88055C55.9022 5.43225 57.0056 6.16786 57.9047 7.08737C58.8037 7.98644 59.4474 8.97746 59.8356 10.0604L56.0963 11.8075C55.6672 10.6632 54.9418 9.72329 53.9201 8.98768C52.8985 8.23164 51.6622 7.85362 50.2115 7.85362C48.7811 7.85362 47.5142 8.19077 46.4108 8.86508C45.3279 9.53938 44.4799 10.4691 43.8669 11.6543C43.2743 12.8394 42.978 14.2289 42.978 15.8227C42.978 17.4165 43.2743 18.8162 43.8669 20.0218C44.4799 21.2069 45.3279 22.1366 46.4108 22.8109C47.5142 23.4852 48.7811 23.8224 50.2115 23.8224C51.6622 23.8224 52.8985 23.4546 53.9201 22.719C54.9418 21.9629 55.6672 21.0128 56.0963 19.8685L59.8356 21.6156C59.4474 22.6986 58.8037 23.6998 57.9047 24.6193C57.0056 25.5184 55.9022 26.2438 54.5944 26.7955C53.3071 27.3472 51.8461 27.623 50.2115 27.623Z" fill="#FCFCFC"></path>
  <path d="M70.062 27.623C68.4273 27.623 66.9357 27.245 65.5871 26.489C64.2589 25.7329 63.1964 24.701 62.3995 23.3933C61.623 22.0855 61.2348 20.5939 61.2348 18.9184C61.2348 17.2428 61.623 15.7512 62.3995 14.4434C63.1964 13.1357 64.2589 12.1038 65.5871 11.3477C66.9153 10.5917 68.4069 10.2137 70.062 10.2137C71.6967 10.2137 73.1781 10.5917 74.5063 11.3477C75.8345 12.1038 76.8868 13.1357 77.6633 14.4434C78.4602 15.7307 78.8586 17.2224 78.8586 18.9184C78.8586 20.5939 78.4602 22.0855 77.6633 23.3933C76.8664 24.701 75.8038 25.7329 74.4757 26.489C73.1475 27.245 71.6763 27.623 70.062 27.623ZM70.062 23.945C70.9611 23.945 71.7478 23.7304 72.4221 23.3013C73.1168 22.8722 73.6583 22.2797 74.0466 21.5236C74.4552 20.7472 74.6596 19.8787 74.6596 18.9184C74.6596 17.9375 74.4552 17.0793 74.0466 16.3437C73.6583 15.5877 73.1168 14.9951 72.4221 14.566C71.7478 14.1165 70.9611 13.8917 70.062 13.8917C69.1425 13.8917 68.3354 14.1165 67.6407 14.566C66.9459 14.9951 66.3942 15.5877 65.9855 16.3437C65.5973 17.0793 65.4032 17.9375 65.4032 18.9184C65.4032 19.8787 65.5973 20.7472 65.9855 21.5236C66.3942 22.2797 66.9459 22.8722 67.6407 23.3013C68.3354 23.7304 69.1425 23.945 70.062 23.945Z" fill="#FCFCFC"></path>
  <path d="M81.2292 27.2552V10.5815H84.9992V14.2902L84.6927 13.7385C85.081 12.492 85.6837 11.6236 86.5011 11.1332C87.3389 10.6428 88.3401 10.3976 89.5048 10.3976H90.4856V13.953H89.0451C87.9008 13.953 86.9813 14.3106 86.2865 15.0258C85.5918 15.7205 85.2444 16.7013 85.2444 17.9682V27.2552H81.2292Z" fill="#FCFCFC"></path>
  <path d="M97.0761 27.623C95.9114 27.623 94.9 27.4289 94.0418 27.0407C93.1836 26.6524 92.5195 26.1007 92.0495 25.3856C91.5795 24.6499 91.3445 23.802 91.3445 22.8416C91.3445 21.9221 91.5489 21.1047 91.9575 20.3896C92.3662 19.654 92.9997 19.041 93.8579 18.5506C94.7161 18.0601 95.799 17.7128 97.1068 17.5084L102.563 16.6196V19.6846L97.873 20.4815C97.0761 20.6245 96.4836 20.88 96.0953 21.2478C95.7071 21.6156 95.513 22.0958 95.513 22.6883C95.513 23.2605 95.7275 23.7202 96.1566 24.0676C96.6062 24.3945 97.1579 24.558 97.8117 24.558C98.6495 24.558 99.3851 24.3843 100.019 24.0369C100.672 23.6691 101.173 23.1685 101.52 22.5351C101.888 21.9016 102.072 21.2069 102.072 20.4509V16.1598C102.072 15.4447 101.786 14.8521 101.214 14.3821C100.662 13.8917 99.9266 13.6465 99.0071 13.6465C98.1489 13.6465 97.3826 13.8815 96.7083 14.3515C96.0545 14.801 95.5743 15.4038 95.2678 16.1598L91.9882 14.566C92.3151 13.6874 92.826 12.9313 93.5207 12.2979C94.2359 11.644 95.0737 11.1332 96.034 10.7654C96.9944 10.3976 98.0365 10.2137 99.1604 10.2137C100.529 10.2137 101.735 10.4691 102.777 10.9799C103.819 11.4703 104.626 12.1651 105.198 13.0642C105.791 13.9428 106.087 14.9747 106.087 16.1598V27.2552H102.287V24.4047L103.145 24.3434C102.716 25.0586 102.205 25.6614 101.612 26.1518C101.02 26.6218 100.345 26.9896 99.5895 27.2552C98.8334 27.5004 97.9956 27.623 97.0761 27.623Z" fill="#FCFCFC"></path>
  <path d="M109.124 27.2552V4.05299H113.139V27.2552H109.124Z" fill="#FCFCFC"></path>
  <path d="M124.325 27.623C122.69 27.623 121.199 27.245 119.85 26.489C118.522 25.7329 117.459 24.701 116.663 23.3933C115.886 22.0855 115.498 20.5939 115.498 18.9184C115.498 17.2428 115.886 15.7512 116.663 14.4434C117.459 13.1357 118.522 12.1038 119.85 11.3477C121.178 10.5917 122.67 10.2137 124.325 10.2137C125.96 10.2137 127.441 10.5917 128.769 11.3477C130.098 12.1038 131.15 13.1357 131.926 14.4434C132.723 15.7307 133.122 17.2224 133.122 18.9184C133.122 20.5939 132.723 22.0855 131.926 23.3933C131.13 24.701 130.067 25.7329 128.739 26.489C127.411 27.245 125.939 27.623 124.325 27.623ZM124.325 23.945C125.224 23.945 126.011 23.7304 126.685 23.3013C127.38 22.8722 127.921 22.2797 128.31 21.5236C128.718 20.7472 128.923 19.8787 128.923 18.9184C128.923 17.9375 128.718 17.0793 128.31 16.3437C127.921 15.5877 127.38 14.9951 126.685 14.566C126.011 14.1165 125.224 13.8917 124.325 13.8917C123.406 13.8917 122.599 14.1165 121.904 14.566C121.209 14.9951 120.657 15.5877 120.249 16.3437C119.86 17.0793 119.666 17.9375 119.666 18.9184C119.666 19.8787 119.86 20.7472 120.249 21.5236C120.657 22.2797 121.209 22.8722 121.904 23.3013C122.599 23.7304 123.406 23.945 124.325 23.945Z" fill="#FCFCFC"></path>
  <path d="M143.584 33.9983C142.338 33.9983 141.183 33.7939 140.121 33.3853C139.058 32.9766 138.139 32.4045 137.362 31.6689C136.606 30.9537 136.054 30.1057 135.707 29.1249L139.446 27.715C139.691 28.4914 140.172 29.1147 140.887 29.5846C141.622 30.075 142.521 30.3202 143.584 30.3202C144.401 30.3202 145.117 30.167 145.73 29.8605C146.363 29.554 146.853 29.1044 147.201 28.5119C147.548 27.9397 147.722 27.245 147.722 26.4277V22.627L148.488 23.5465C147.916 24.5478 147.15 25.3038 146.189 25.8147C145.229 26.3255 144.136 26.5809 142.91 26.5809C141.357 26.5809 139.967 26.2233 138.741 25.5082C137.515 24.793 136.555 23.8122 135.86 22.5657C135.165 21.3193 134.818 19.9196 134.818 18.3667C134.818 16.7933 135.165 15.3936 135.86 14.1676C136.555 12.9416 137.505 11.9812 138.711 11.2864C139.916 10.5713 141.285 10.2137 142.818 10.2137C144.064 10.2137 145.157 10.4793 146.097 11.0106C147.058 11.5214 147.855 12.2673 148.488 13.2481L147.936 14.2595V10.5815H151.737V26.4277C151.737 27.8784 151.379 29.176 150.664 30.3202C149.969 31.4645 149.009 32.3636 147.783 33.0175C146.578 33.6713 145.178 33.9983 143.584 33.9983ZM143.4 22.8722C144.258 22.8722 145.004 22.6883 145.638 22.3205C146.291 21.9323 146.802 21.401 147.17 20.7267C147.538 20.0524 147.722 19.2759 147.722 18.3973C147.722 17.5391 147.528 16.7728 147.139 16.0985C146.772 15.4038 146.261 14.8623 145.607 14.4741C144.973 14.0858 144.238 13.8917 143.4 13.8917C142.562 13.8917 141.806 14.0858 141.132 14.4741C140.458 14.8623 139.926 15.4038 139.538 16.0985C139.17 16.7728 138.986 17.5391 138.986 18.3973C138.986 19.2555 139.17 20.0218 139.538 20.6961C139.926 21.3704 140.447 21.9016 141.101 22.2899C141.776 22.6781 142.542 22.8722 143.4 22.8722Z" fill="#FCFCFC"></path>
  <path d="M154.813 27.2552V10.5815H158.828V27.2552H154.813ZM154.813 8.71183V4.4208H158.828V8.71183H154.813Z" fill="#FCFCFC"></path>
  <path d="M160.359 27.2552L166.182 18.8877L160.328 10.5815H165.048L169.615 17.3245H167.5L172.067 10.5815H176.757L170.933 18.8877L176.726 27.2552H172.037L167.531 20.5428H169.585L165.079 27.2552H160.359Z" fill="#FCFCFC"></path>
</svg>
