<?xml version="1.0" encoding="UTF-8"?>
<svg id="Layer_1" data-name="Layer 1" xmlns="http://www.w3.org/2000/svg" version="1.1" viewBox="0 0 98.2 98.2">
  <defs>
    <style>
      .cls-1 {
        fill: #fff;
        stroke-width: 0px;
      }

      .cls-2 {
        fill: #06c4a2;
        stroke: #06c4a2;
        stroke-width: .9px;
      }
    </style>
  </defs>
  <path class="cls-1" d="M49.1,0h0C76.2,0,98.2,22,98.2,49.1h0c0,27.1-22,49.1-49.1,49.1h0C22,98.2,0,76.2,0,49.1H0C0,22,22,0,49.1,0Z"/>
  <path class="cls-2" d="M63.2,33.9v-.7c0-.1,0-.2-.2-.2h-27.4c-.1,0-.2.1-.2.2v32.1c0,.1,0,.2.1.2h27.9c0,0,.1-.1.1-.2v-16.6c0-.1,0-.2-.2-.2h-.6c-.1,0-.2.1-.2.2v15.7h-26v-30.2h26.6c0,0,.2-.1.2-.2Z"/>
  <path class="cls-2" d="M41.3,39.8h16.8c.1,0,.2-.1.2-.2v-.7c0-.1,0-.2-.2-.2h-17.6c-.1,0-.2.1-.2.2v20.8c0,.1,0,.2.1.2h18.1c0,0,.1-.1.1-.2v-11c0-.1,0-.2-.2-.2h-.6c-.1,0-.2.1-.2.2v10.1h-16.3v-19Z"/>
  <path class="cls-2" d="M68.1,48.4h-.6c-.1,0-.2.1-.2.2v21.4H31.5V28.5h36.3c.1,0,.2-.1.2-.2v-.7c0-.1,0-.2-.2-.2H30.7c-.1,0-.2.1-.2.2v43.4c0,.1,0,.2.1.2h37.7c0,0,.1-.1.1-.2v-22.3c0-.1,0-.2-.2-.2Z"/>
</svg>