<svg width="393" height="679" viewBox="0 0 393 679" fill="none" xmlns="http://www.w3.org/2000/svg">
<g clip-path="url(#clip0_4121_1636)">
<path d="M-761.77 411.847L420.298 411.847" stroke="#AEBBB9" stroke-dasharray="5 5"/>
<path d="M-761.77 360.029L440.068 360.029" stroke="#AEBBB9" stroke-dasharray="5 5"/>
<path d="M-761.77 308.21L440.068 308.21" stroke="#AEBBB9" stroke-dasharray="5 5"/>
<path d="M-761.77 256.391L440.068 256.391" stroke="#AEBBB9" stroke-dasharray="5 5"/>
<path d="M-761.77 204.573L440.068 204.573" stroke="#AEBBB9" stroke-dasharray="5 5"/>
<path d="M-761.77 463.514L420.298 463.514" stroke="#AEBBB9" stroke-dasharray="5 5"/>
<path d="M-761.77 515.181L420.298 515.181" stroke="#AEBBB9" stroke-dasharray="5 5"/>
<path d="M-761.77 566.847L420.298 566.847" stroke="#AEBBB9" stroke-dasharray="5 5"/>
<path d="M437.195 245C-80.4621 495.728 -749.018 610.442 -749.018 610.442" stroke="url(#paint0_linear_4121_1636)" stroke-width="7" stroke-linejoin="bevel"/>
<path d="M42.2491 204.879L42.2476 613.257" stroke="#AEBBB9" stroke-dasharray="5 5"/>
<path d="M109.251 204.879L109.249 613.257" stroke="#AEBBB9" stroke-dasharray="5 5"/>
<path d="M176.252 204.879L176.251 613.257" stroke="#AEBBB9" stroke-dasharray="5 5"/>
<path d="M243.254 204.879L243.252 613.257" stroke="#AEBBB9" stroke-dasharray="5 5"/>
<path d="M310.255 204.879L310.254 613.257" stroke="#AEBBB9" stroke-dasharray="5 5"/>
<path d="M377.257 204.879L377.256 613.257" stroke="#AEBBB9" stroke-dasharray="5 5"/>
<path d="M-761.752 204.573L-761.752 584.723C-761.752 602.396 -747.425 616.723 -729.752 616.723L420.317 616.723" stroke="#AEBBB9"/>
<path d="M127 347C127 308.892 158.392 278 196.5 278C234.608 278 266 308.892 266 347C266 385.108 234.608 416 196.5 416C158.392 416 127 385.108 127 347Z" fill="url(#paint1_linear_4121_1636)"/>
<rect x="64" y="216" width="265" height="262" rx="131" fill="url(#paint2_linear_4121_1636)" fill-opacity="0.5"/>
<rect x="-16" y="137" width="425" height="420" rx="210" fill="url(#paint3_linear_4121_1636)" fill-opacity="0.25"/>
<g filter="url(#filter0_dd_4121_1636)">
<path d="M162.803 347C162.803 328.178 178.061 312.92 196.883 312.92C215.705 312.92 230.963 328.178 230.963 347C230.963 365.822 215.705 381.08 196.883 381.08C178.061 381.08 162.803 365.822 162.803 347Z" fill="#67D9C5"/>
<path d="M208.766 346.516C208.56 345.968 208.272 345.46 207.895 345.007C207.346 344.349 206.639 343.848 205.851 343.533C206.653 342.038 207.078 340.364 207.078 338.649C207.078 337.25 206.811 335.892 206.269 334.616C205.748 333.389 205 332.278 204.054 331.331C203.1 330.378 201.996 329.63 200.762 329.109C199.486 328.574 198.128 328.3 196.735 328.3C195.343 328.3 193.985 328.574 192.709 329.109C191.475 329.63 190.371 330.378 189.417 331.331C188.464 332.278 187.723 333.389 187.202 334.616C186.66 335.892 186.386 337.25 186.386 338.649C186.386 339.85 186.605 341.023 187.003 342.141C186.66 342.291 186.331 342.47 186.022 342.682C185.508 343.039 185.062 343.471 184.685 343.965C184.307 344.466 184.012 345.021 183.807 345.618C183.601 346.228 183.491 346.873 183.491 347.525C183.491 348.32 183.649 349.095 183.958 349.822C184.253 350.522 184.678 351.153 185.22 351.695C185.761 352.237 186.392 352.662 187.092 352.957C187.819 353.265 188.594 353.423 189.39 353.423C190.501 353.423 191.571 353.114 192.497 352.538L195.967 356.016L196.036 355.947V364.301H192.394V365.7H200.899V364.301H197.435V355.536L200.707 352.264C201.084 352.573 201.502 352.826 201.955 353.018C202.586 353.286 203.258 353.423 203.951 353.423C204.644 353.423 205.316 353.286 205.947 353.018C206.557 352.758 207.106 352.387 207.579 351.921C208.052 351.448 208.423 350.899 208.677 350.289C208.944 349.658 209.081 348.986 209.081 348.293C209.081 347.682 208.978 347.086 208.766 346.516ZM190.226 348.286L189.239 349.28L191.468 351.51C190.844 351.832 190.137 352.017 189.39 352.017C186.914 352.017 184.897 350.001 184.897 347.525C184.897 345.748 185.96 344.136 187.552 343.423C187.6 343.512 187.654 343.595 187.709 343.684C187.778 343.814 187.853 343.937 187.929 344.061C188.052 344.267 188.183 344.459 188.32 344.651C188.402 344.761 188.484 344.877 188.574 344.994C188.724 345.193 188.896 345.385 189.061 345.57C189.143 345.659 189.218 345.755 189.301 345.837C189.561 346.112 189.836 346.365 190.124 346.606C190.734 347.113 191.406 347.552 192.12 347.909C192.442 348.073 192.778 348.21 193.121 348.341C193.217 348.375 193.32 348.409 193.416 348.437C193.532 348.478 193.649 348.526 193.766 348.56C193.574 349.376 193.162 350.09 192.6 350.659L190.226 348.286ZM196.036 354.095L193.594 351.654C194.355 350.872 194.89 349.911 195.13 348.855C195.432 348.903 195.727 348.931 196.036 348.951V354.095ZM197.435 353.553V348.965C197.908 348.938 198.382 348.869 198.848 348.773C198.896 349.294 199.019 349.802 199.225 350.289C199.369 350.625 199.548 350.94 199.753 351.235L197.435 353.553ZM199.904 345.151C199.76 345.337 199.63 345.536 199.506 345.741C199.486 345.776 199.465 345.817 199.445 345.858C199.328 346.064 199.232 346.283 199.15 346.503C199.136 346.537 199.122 346.571 199.115 346.599C199.033 346.832 198.965 347.065 198.923 347.305C198.917 347.312 198.917 347.319 198.917 347.326C198.43 347.442 197.936 347.511 197.435 347.545V340.686H196.036V344.294L193.786 342.044L192.799 343.039L196.036 346.276V347.552C195.59 347.518 195.151 347.463 194.719 347.367C191.989 346.736 189.685 344.829 188.546 342.257C188.045 341.119 187.792 339.905 187.792 338.649C187.792 333.711 191.804 329.699 196.735 329.699C201.667 329.699 205.679 333.711 205.679 338.649C205.679 340.254 205.254 341.811 204.445 343.19C204.28 343.169 204.115 343.162 203.951 343.162C202.668 343.162 201.434 343.643 200.487 344.507C200.302 344.685 200.131 344.87 199.973 345.062C199.952 345.09 199.925 345.117 199.904 345.151Z" fill="#000B31"/>
</g>
</g>
<defs>
<filter id="filter0_dd_4121_1636" x="125.883" y="297.3" width="142" height="142" filterUnits="userSpaceOnUse" color-interpolation-filters="sRGB">
<feFlood flood-opacity="0" result="BackgroundImageFix"/>
<feColorMatrix in="SourceAlpha" type="matrix" values="0 0 0 0 0 0 0 0 0 0 0 0 0 0 0 0 0 0 127 0" result="hardAlpha"/>
<feMorphology radius="5.68001" operator="erode" in="SourceAlpha" result="effect1_dropShadow_4121_1636"/>
<feOffset dy="11.36"/>
<feGaussianBlur stdDeviation="10.65"/>
<feComposite in2="hardAlpha" operator="out"/>
<feColorMatrix type="matrix" values="0 0 0 0 0.0235294 0 0 0 0 0.768627 0 0 0 0 0.635294 0 0 0 0.1 0"/>
<feBlend mode="normal" in2="BackgroundImageFix" result="effect1_dropShadow_4121_1636"/>
<feColorMatrix in="SourceAlpha" type="matrix" values="0 0 0 0 0 0 0 0 0 0 0 0 0 0 0 0 0 0 127 0" result="hardAlpha"/>
<feMorphology radius="5.68001" operator="erode" in="SourceAlpha" result="effect2_dropShadow_4121_1636"/>
<feOffset dy="21.3"/>
<feGaussianBlur stdDeviation="21.3"/>
<feComposite in2="hardAlpha" operator="out"/>
<feColorMatrix type="matrix" values="0 0 0 0 0.0478442 0 0 0 0 0.468604 0 0 0 0 0.39331 0 0 0 0.2 0"/>
<feBlend mode="normal" in2="effect1_dropShadow_4121_1636" result="effect2_dropShadow_4121_1636"/>
<feBlend mode="normal" in="SourceGraphic" in2="effect2_dropShadow_4121_1636" result="shape"/>
</filter>
<linearGradient id="paint0_linear_4121_1636" x1="-747.853" y1="617.543" x2="487.552" y2="335.427" gradientUnits="userSpaceOnUse">
<stop stop-color="#C0F1E8"/>
<stop offset="0.573188" stop-color="#06C4A2"/>
<stop offset="1" stop-color="#C0F1E8"/>
</linearGradient>
<linearGradient id="paint1_linear_4121_1636" x1="181.152" y1="301.428" x2="213.759" y2="490.361" gradientUnits="userSpaceOnUse">
<stop stop-color="#67D9C5" stop-opacity="0"/>
<stop offset="1" stop-color="#67D9C5"/>
</linearGradient>
<linearGradient id="paint2_linear_4121_1636" x1="167.239" y1="260.48" x2="228.904" y2="619.265" gradientUnits="userSpaceOnUse">
<stop stop-color="#67D9C5" stop-opacity="0"/>
<stop offset="1" stop-color="#67D9C5"/>
</linearGradient>
<linearGradient id="paint3_linear_4121_1636" x1="149.572" y1="208.304" x2="248.382" y2="783.47" gradientUnits="userSpaceOnUse">
<stop stop-color="#67D9C5" stop-opacity="0"/>
<stop offset="1" stop-color="#67D9C5"/>
</linearGradient>
<clipPath id="clip0_4121_1636">
<rect width="393" height="679" fill="white"/>
</clipPath>
</defs>
</svg>
