<svg width="393" height="679" viewBox="0 0 393 679" fill="none" xmlns="http://www.w3.org/2000/svg">
<g clip-path="url(#clip0_4121_1502)">
<path d="M24 411.847L1206.07 411.847" stroke="#AEBBB9" stroke-dasharray="5 5"/>
<path d="M24 360.029L1225.84 360.029" stroke="#AEBBB9" stroke-dasharray="5 5"/>
<path d="M24 308.21L1225.84 308.21" stroke="#AEBBB9" stroke-dasharray="5 5"/>
<path d="M24 256.391L1225.84 256.391" stroke="#AEBBB9" stroke-dasharray="5 5"/>
<path d="M24 204.573L1225.84 204.573" stroke="#AEBBB9" stroke-dasharray="5 5"/>
<path d="M24 463.514L1206.07 463.514" stroke="#AEBBB9" stroke-dasharray="5 5"/>
<path d="M24 515.181L1206.07 515.181" stroke="#AEBBB9" stroke-dasharray="5 5"/>
<path d="M24 566.847L1206.07 566.847" stroke="#AEBBB9" stroke-dasharray="5 5"/>
<path d="M1222.97 245C705.308 495.728 36.7527 610.442 36.7527 610.442" stroke="url(#paint0_linear_4121_1502)" stroke-width="7" stroke-linejoin="bevel"/>
<path d="M91.003 204.879L91.0015 613.257" stroke="#AEBBB9" stroke-dasharray="5 5"/>
<path d="M158.004 204.879L158.003 613.257" stroke="#AEBBB9" stroke-dasharray="5 5"/>
<path d="M225.006 204.879L225.004 613.257" stroke="#AEBBB9" stroke-dasharray="5 5"/>
<path d="M292.007 204.879L292.006 613.257" stroke="#AEBBB9" stroke-dasharray="5 5"/>
<path d="M359.009 204.879L359.008 613.257" stroke="#AEBBB9" stroke-dasharray="5 5"/>
<path d="M24.018 204.573L24.0181 584.722C24.0181 602.396 38.345 616.722 56.0181 616.722L1206.09 616.722" stroke="#AEBBB9"/>
<g filter="url(#filter0_dd_4121_1502)">
<path d="M202.308 573C202.308 560.922 212.099 551.131 224.177 551.131C236.255 551.131 246.046 560.922 246.046 573C246.046 585.078 236.255 594.869 224.177 594.869C212.099 594.869 202.308 585.078 202.308 573Z" fill="#8EE2D3"/>
<path d="M232.769 562.87C232.733 562.677 232.612 562.51 232.445 562.405C232.272 562.3 232.068 562.279 231.875 562.337C229.898 562.959 228.303 563.99 227.257 565.323C226.634 566.118 226.205 567.049 226.012 568.022C225.824 568.969 225.881 569.9 226.158 570.747C225.844 571.417 225.593 572.112 225.4 572.829C225.123 571.652 224.72 570.501 224.207 569.408C224.594 568.278 224.668 567.018 224.411 565.747C224.155 564.46 223.59 563.231 222.769 562.185C222.037 561.249 221.101 560.423 219.981 559.727C218.988 559.115 217.863 558.603 216.629 558.221C216.425 558.153 216.2 558.179 216.017 558.294C215.829 558.404 215.703 558.587 215.661 558.796C215.269 560.857 215.191 562.52 215.41 564.026C215.703 566.071 216.597 567.844 217.915 569.016C218.684 569.696 219.6 570.151 220.567 570.334C220.891 570.397 221.221 570.428 221.556 570.428C221.754 570.428 221.958 570.418 222.157 570.397C222.56 570.35 222.957 570.255 223.355 570.125C223.799 571.103 224.145 572.128 224.38 573.174C223.768 573.258 223.177 573.462 222.617 573.812C221.979 574.21 221.409 574.764 220.923 575.454C219.945 576.851 219.411 578.687 219.411 580.622C219.411 581.61 219.547 582.573 219.824 583.483C220.091 584.367 220.473 585.162 220.965 585.847C221.467 586.548 222.053 587.097 222.712 587.484C223.407 587.897 224.15 588.106 224.919 588.106C225.688 588.106 226.43 587.897 227.126 587.484C227.78 587.097 228.371 586.548 228.867 585.847C229.359 585.162 229.746 584.367 230.013 583.483C230.285 582.573 230.426 581.61 230.426 580.622C230.426 579.633 230.285 578.666 230.013 577.761C229.746 576.877 229.359 576.077 228.867 575.392C228.371 574.696 227.78 574.142 227.126 573.755C226.875 573.608 226.619 573.493 226.357 573.399C226.519 572.735 226.744 572.086 227.016 571.464C227.278 571.542 227.539 571.605 227.806 571.631C227.957 571.652 228.109 571.657 228.266 571.657C228.522 571.657 228.773 571.636 229.024 571.589C229.767 571.448 230.468 571.098 231.054 570.58C232.058 569.685 232.738 568.341 232.958 566.793C233.125 565.663 233.062 564.413 232.769 562.87ZM227.999 576.014C228.873 577.238 229.354 578.875 229.354 580.622C229.354 582.369 228.873 584 227.999 585.224C227.162 586.391 226.069 587.034 224.919 587.034C223.768 587.034 222.67 586.391 221.838 585.224C220.959 584 220.478 582.363 220.478 580.622C220.478 578.88 220.949 577.285 221.796 576.071C222.534 575.015 223.48 574.372 224.49 574.23C224.615 574.44 224.746 574.633 224.877 574.827C224.913 574.879 224.945 574.926 224.981 574.978C225.212 575.318 225.426 575.653 225.567 576.009C225.698 576.333 225.74 576.662 225.703 576.961C225.667 577.222 225.562 577.494 225.452 577.782L225.442 577.797C225.337 578.075 225.222 578.357 225.107 578.629C225.055 578.755 225.002 578.885 224.945 579.016C224.783 579.414 224.6 579.874 224.448 580.355C224.328 580.732 224.207 581.181 224.192 581.647C224.171 582.144 224.296 582.541 224.563 582.824C224.636 582.907 224.72 582.975 224.814 583.038C224.971 583.137 225.175 583.153 225.342 583.069C225.52 582.981 225.63 582.808 225.646 582.614C225.656 582.421 225.562 582.238 225.4 582.133H225.395C225.3 582.065 225.274 581.903 225.269 581.809C225.253 581.511 225.332 581.176 225.416 580.883C225.536 580.465 225.693 580.052 225.844 579.665C225.928 579.466 226.012 579.257 226.095 579.058C226.184 578.849 226.268 578.64 226.357 578.425C226.493 578.08 226.639 577.719 226.728 577.327C226.828 576.903 226.812 576.443 226.697 575.993C226.561 575.486 226.305 575.041 226.095 574.712C226.017 574.586 225.933 574.466 225.855 574.351C226.655 574.602 227.393 575.172 227.999 576.014ZM231.901 566.641C231.713 567.939 231.158 569.053 230.342 569.78C229.532 570.496 228.522 570.742 227.497 570.491C228.266 569.094 229.302 567.844 230.557 566.861L229.898 566.019C228.737 566.929 227.759 568.043 226.969 569.283C226.938 568.158 227.33 566.96 228.099 565.982C229.129 564.67 230.609 563.911 231.796 563.493C232 564.722 232.032 565.731 231.901 566.641Z" fill="black"/>
</g>
</g>
<defs>
<filter id="filter0_dd_4121_1502" x="178.616" y="541.107" width="91.1214" height="91.1214" filterUnits="userSpaceOnUse" color-interpolation-filters="sRGB">
<feFlood flood-opacity="0" result="BackgroundImageFix"/>
<feColorMatrix in="SourceAlpha" type="matrix" values="0 0 0 0 0 0 0 0 0 0 0 0 0 0 0 0 0 0 127 0" result="hardAlpha"/>
<feMorphology radius="3.64486" operator="erode" in="SourceAlpha" result="effect1_dropShadow_4121_1502"/>
<feOffset dy="7.28971"/>
<feGaussianBlur stdDeviation="6.83411"/>
<feComposite in2="hardAlpha" operator="out"/>
<feColorMatrix type="matrix" values="0 0 0 0 0.0235294 0 0 0 0 0.768627 0 0 0 0 0.635294 0 0 0 0.1 0"/>
<feBlend mode="normal" in2="BackgroundImageFix" result="effect1_dropShadow_4121_1502"/>
<feColorMatrix in="SourceAlpha" type="matrix" values="0 0 0 0 0 0 0 0 0 0 0 0 0 0 0 0 0 0 127 0" result="hardAlpha"/>
<feMorphology radius="3.64486" operator="erode" in="SourceAlpha" result="effect2_dropShadow_4121_1502"/>
<feOffset dy="13.6682"/>
<feGaussianBlur stdDeviation="13.6682"/>
<feComposite in2="hardAlpha" operator="out"/>
<feColorMatrix type="matrix" values="0 0 0 0 0.0478442 0 0 0 0 0.468604 0 0 0 0 0.39331 0 0 0 0.2 0"/>
<feBlend mode="normal" in2="effect1_dropShadow_4121_1502" result="effect2_dropShadow_4121_1502"/>
<feBlend mode="normal" in="SourceGraphic" in2="effect2_dropShadow_4121_1502" result="shape"/>
</filter>
<linearGradient id="paint0_linear_4121_1502" x1="37.9176" y1="617.543" x2="1273.32" y2="335.427" gradientUnits="userSpaceOnUse">
<stop stop-color="#C0F1E8"/>
<stop offset="0.573188" stop-color="#06C4A2"/>
<stop offset="1" stop-color="#C0F1E8"/>
</linearGradient>
<clipPath id="clip0_4121_1502">
<rect width="393" height="679" fill="white"/>
</clipPath>
</defs>
</svg>
