<svg width="24" height="24" viewBox="0 0 24 24" fill="none" xmlns="http://www.w3.org/2000/svg">
<path d="M20 1.52588e-05H4C2.93913 1.52588e-05 1.92172 0.421443 1.17157 1.17159C0.421427 1.92173 0 2.93915 0 4.00002V20C0 21.0609 0.421427 22.0783 1.17157 22.8284C1.92172 23.5786 2.93913 24 4 24H20C21.0609 24 22.0783 23.5786 22.8284 22.8284C23.5786 22.0783 24 21.0609 24 20V4.00002C24 2.93915 23.5786 1.92173 22.8284 1.17159C22.0783 0.421443 21.0609 1.52588e-05 20 1.52588e-05ZM17.7333 8.81335L11.64 16.8133C11.5158 16.9747 11.3563 17.1055 11.1737 17.1956C10.9911 17.2857 10.7903 17.3329 10.5867 17.3333C10.3841 17.3344 10.184 17.2894 10.0015 17.2016C9.81901 17.1138 9.6589 16.9856 9.53333 16.8267L6.28 12.68C6.17232 12.5417 6.09293 12.3835 6.04638 12.2145C5.99983 12.0455 5.98702 11.869 6.00869 11.695C6.03035 11.5211 6.08607 11.3531 6.17266 11.2007C6.25925 11.0482 6.37501 10.9144 6.51333 10.8067C6.7927 10.5892 7.14701 10.4916 7.49833 10.5354C7.67228 10.557 7.84026 10.6128 7.99269 10.6993C8.14511 10.7859 8.27898 10.9017 8.38667 11.04L10.56 13.8133L15.6 7.14668C15.7068 7.00661 15.8402 6.88894 15.9924 6.8004C16.1447 6.71186 16.313 6.65418 16.4875 6.63065C16.6621 6.60713 16.8396 6.61822 17.0099 6.66329C17.1802 6.70837 17.3399 6.78654 17.48 6.89335C17.6201 7.00016 17.7377 7.13351 17.8263 7.28579C17.9148 7.43808 17.9725 7.60631 17.996 7.78088C18.0196 7.95546 18.0085 8.13295 17.9634 8.30324C17.9183 8.47353 17.8401 8.63327 17.7333 8.77335V8.81335Z" fill="#06C4A2"/>
</svg>
