<svg width="51" height="50" viewBox="0 0 51 50" fill="none" xmlns="http://www.w3.org/2000/svg">
<rect x="0.282715" width="50" height="50" rx="25" fill="#C6EBE4" fill-opacity="0.4"/>
<g clip-path="url(#clip0_3764_4067)">
<path d="M29.9492 33.1668C29.9492 35.0965 28.3789 36.6668 26.4492 36.6668V37.8335C26.4492 38.4775 25.9277 39.0002 25.2825 39.0002C24.6374 39.0002 24.1159 38.4775 24.1159 37.8335V36.6668H23.8032C22.5584 36.6668 21.3964 35.9972 20.7722 34.918C20.449 34.3603 20.6404 33.6475 21.1969 33.3243C21.7557 33 22.4685 33.1925 22.7905 33.7502C22.9994 34.1095 23.3867 34.3335 23.802 34.3335H26.448C27.092 34.3335 27.6147 33.8108 27.6147 33.1668C27.6147 32.7258 27.2985 32.3525 26.8633 32.2802L23.3155 31.6887C21.7499 31.4285 20.6147 30.0868 20.6147 28.5002C20.6147 26.5705 22.185 25.0002 24.1147 25.0002V23.8335C24.1147 23.1895 24.6362 22.6668 25.2814 22.6668C25.9265 22.6668 26.448 23.1895 26.448 23.8335V25.0002H26.7607C28.0055 25.0002 29.1675 25.6698 29.7917 26.749C30.1149 27.3067 29.9235 28.0195 29.367 28.3427C28.807 28.6647 28.0942 28.4733 27.7734 27.9168C27.5645 27.5575 27.1772 27.3335 26.7619 27.3335H24.1159C23.4719 27.3335 22.9492 27.8562 22.9492 28.5002C22.9492 28.9412 23.2654 29.3145 23.7005 29.3868L27.2484 29.9783C28.814 30.2385 29.9492 31.5802 29.9492 33.1668ZM38.9407 23.6923L36.2655 21.0172C35.3567 20.1072 33.875 20.1072 32.9662 21.0172L30.291 23.6923C29.8349 24.1485 29.8349 24.8858 30.291 25.342C30.7472 25.7982 31.4845 25.7982 31.9407 25.342L33.4492 23.8335V37.8335C33.4492 38.4775 33.9707 39.0002 34.6159 39.0002C35.261 39.0002 35.7825 38.4775 35.7825 37.8335V23.8335L37.291 25.342C37.5185 25.5695 37.8172 25.6838 38.1159 25.6838C38.4145 25.6838 38.7132 25.5695 38.9407 25.342C39.3969 24.8858 39.3969 24.1485 38.9407 23.6923ZM22.6074 16.0087L24.1159 14.5002V19.1668C24.1159 19.8108 24.6374 20.3335 25.2825 20.3335C25.9277 20.3335 26.4492 19.8108 26.4492 19.1668V14.5002L27.9577 16.0087C28.1852 16.2362 28.4839 16.3505 28.7825 16.3505C29.0812 16.3505 29.3799 16.2362 29.6074 16.0087C30.0635 15.5525 30.0635 14.8152 29.6074 14.359L26.9322 11.6838C26.0234 10.7738 24.5417 10.7738 23.6329 11.6838L20.9577 14.359C20.5015 14.8152 20.5015 15.5525 20.9577 16.0087C21.4139 16.4648 22.1512 16.4648 22.6074 16.0087ZM20.274 20.1923L17.5989 17.5172C16.69 16.6072 15.2084 16.6072 14.2995 17.5172L11.6244 20.1923C11.1682 20.6485 11.1682 21.3858 11.6244 21.842C12.0805 22.2982 12.8179 22.2982 13.274 21.842L14.7825 20.3335V37.8335C14.7825 38.4775 15.304 39.0002 15.9492 39.0002C16.5944 39.0002 17.1159 38.4775 17.1159 37.8335V20.3335L18.6244 21.842C18.8519 22.0695 19.1505 22.1838 19.4492 22.1838C19.7479 22.1838 20.0465 22.0695 20.274 21.842C20.7302 21.3858 20.7302 20.6485 20.274 20.1923Z" fill="#06C4A2"/>
</g>
<defs>
<clipPath id="clip0_3764_4067">
<rect width="28" height="28" fill="white" transform="translate(11.2827 11)"/>
</clipPath>
</defs>
</svg>
