<svg width="60" height="60" viewBox="0 0 60 60" fill="none" xmlns="http://www.w3.org/2000/svg">
<rect width="60" height="60" rx="30" fill="#C6EBE4" fill-opacity="0.4"/>
<g clip-path="url(#clip0_3764_4083)">
<path d="M35.8333 27.6667C31.3312 27.6667 27.6667 31.33 27.6667 35.8333C27.6667 40.3367 31.3312 44 35.8333 44C40.3355 44 44 40.3367 44 35.8333C44 31.33 40.3355 27.6667 35.8333 27.6667ZM35.8333 41.6667C32.6168 41.6667 30 39.0498 30 35.8333C30 32.6168 32.6168 30 35.8333 30C39.0498 30 41.6667 32.6168 41.6667 35.8333C41.6667 39.0498 39.0498 41.6667 35.8333 41.6667ZM37.8248 36.1752C38.281 36.6313 38.281 37.3687 37.8248 37.8248C37.5973 38.0523 37.2987 38.1667 37 38.1667C36.7013 38.1667 36.4027 38.0523 36.1752 37.8248L35.0085 36.6582C34.7892 36.4388 34.6667 36.1425 34.6667 35.8333V33.5C34.6667 32.856 35.1882 32.3333 35.8333 32.3333C36.4785 32.3333 37 32.856 37 33.5V35.3503L37.8248 36.1752ZM26.5 41.6667H21.8333C19.9037 41.6667 18.3333 40.0963 18.3333 38.1667V32.3333H25.3333C25.9785 32.3333 26.5 31.8107 26.5 31.1667C26.5 30.5227 25.9785 30 25.3333 30H18.3333V26.5C18.3333 24.5703 19.9037 23 21.8333 23H38.1667C40.0963 23 41.6667 24.5703 41.6667 26.5C41.6667 27.144 42.1882 27.6667 42.8333 27.6667C43.4785 27.6667 44 27.144 44 26.5C44 23.2835 41.3832 20.6667 38.1667 20.6667H36.8822C36.3397 18.0078 33.983 16 31.1667 16H28.8333C26.017 16 23.6592 18.0078 23.1178 20.6667H21.8333C18.6168 20.6667 16 23.2835 16 26.5V38.1667C16 41.3832 18.6168 44 21.8333 44H26.5C27.1452 44 27.6667 43.4773 27.6667 42.8333C27.6667 42.1893 27.1452 41.6667 26.5 41.6667ZM28.8333 18.3333H31.1667C32.688 18.3333 33.9842 19.3087 34.466 20.6667H25.534C26.0158 19.3087 27.312 18.3333 28.8333 18.3333Z" fill="#06C4A2"/>
</g>
<defs>
<clipPath id="clip0_3764_4083">
<rect width="28" height="28" fill="white" transform="translate(16 16)"/>
</clipPath>
</defs>
</svg>
