<svg width="61" height="60" viewBox="0 0 61 60" fill="none" xmlns="http://www.w3.org/2000/svg">
<rect x="0.522461" width="60" height="60" rx="30" fill="#C6EBE4" fill-opacity="0.4"/>
<g clip-path="url(#clip0_3868_1623)">
<path d="M43.3791 26.255C42.6908 25.625 41.7925 25.31 40.8475 25.345C39.9141 25.3916 39.0508 25.8 38.4091 26.4883L34.6525 30.6066C34.0108 29.545 32.8441 28.8333 31.5141 28.8333H21.1891C18.6108 28.8333 16.5225 30.9216 16.5225 33.5V39.3333C16.5225 41.9116 18.6108 44 21.1891 44H26.9758C30.3008 44 33.4741 42.5766 35.6908 40.0916L43.6358 31.1783C44.9075 29.7433 44.7908 27.5383 43.3791 26.2433V26.255ZM41.8975 29.6383L33.9525 38.5516C32.1791 40.535 29.6475 41.6783 26.9875 41.6783H21.1891C19.9058 41.6783 18.8558 40.6283 18.8558 39.345V33.5116C18.8558 32.2283 19.9058 31.1783 21.1891 31.1783H31.5258C32.2608 31.1783 32.8558 31.7733 32.8558 32.5083C32.8558 33.1616 32.3658 33.7333 31.7125 33.8266L25.6925 34.69C25.0508 34.7833 24.6075 35.3666 24.7008 36.0083C24.7941 36.65 25.3891 37.0933 26.0191 37L32.0391 36.1366C33.4158 35.9383 34.5241 34.9816 34.9675 33.7333L40.1358 28.0633C40.3458 27.83 40.6375 27.69 40.9525 27.6783C41.2675 27.6783 41.5708 27.7716 41.8041 27.9816C42.2825 28.4133 42.3175 29.16 41.8858 29.6383H41.8975Z" fill="#06C4A2"/>
<path d="M27.0226 27.6667H27.4659C29.1576 27.6667 30.5226 26.29 30.5226 24.61C30.5226 23.105 29.4493 21.8333 27.9676 21.5883L24.1409 20.9467C23.7909 20.8883 23.5343 20.585 23.5343 20.2233C23.5343 19.8267 23.8609 19.5 24.2576 19.5H27.3376C27.7576 19.5 28.1426 19.7217 28.3526 20.0833C28.6676 20.6433 29.3792 20.83 29.9509 20.5033C30.5109 20.1767 30.6976 19.465 30.3709 18.905C29.7526 17.8317 28.5859 17.155 27.3376 17.155H27.0226C27.0226 16.5133 26.4976 15.9883 25.8559 15.9883C25.2142 15.9883 24.6892 16.5133 24.6892 17.155H24.2459C22.5542 17.155 21.1892 18.5317 21.1892 20.2117C21.1892 21.7167 22.2626 22.9883 23.7442 23.2333L27.5709 23.875C27.9209 23.9333 28.1776 24.2367 28.1776 24.5983C28.1776 24.995 27.8509 25.3217 27.4542 25.3217H24.3742C23.9542 25.3217 23.5692 25.1 23.3593 24.7383C23.0326 24.1783 22.3209 23.9917 21.7609 24.3183C21.2009 24.645 21.0142 25.3567 21.3409 25.9167C21.9592 26.99 23.1259 27.6667 24.3742 27.6667H24.6892C24.6892 28.3083 25.2142 28.8333 25.8559 28.8333C26.4976 28.8333 27.0226 28.3083 27.0226 27.6667Z" fill="#06C4A2"/>
</g>
<defs>
<clipPath id="clip0_3868_1623">
<rect width="28" height="28" fill="white" transform="translate(16.5225 16)"/>
</clipPath>
</defs>
</svg>
