<svg width="56" height="55" viewBox="0 0 56 55" fill="none" xmlns="http://www.w3.org/2000/svg">
<rect x="0.978027" width="55" height="55" rx="27.5" fill="#C6EBE4" fill-opacity="0.4"/>
<g clip-path="url(#clip0_3586_1704)">
<path d="M36.6447 18.1667H35.3614C35.0906 16.85 34.3742 15.6669 33.3328 14.8168C32.2915 13.9668 30.9889 13.5017 29.6447 13.5L27.3114 13.5C25.9671 13.5017 24.6646 13.9668 23.6232 14.8168C22.5819 15.6669 21.8655 16.85 21.5947 18.1667H20.3114C18.7648 18.1685 17.2822 18.7837 16.1886 19.8773C15.0951 20.9708 14.4799 22.4535 14.478 24V35.6667C14.4799 37.2132 15.0951 38.6959 16.1886 39.7894C17.2822 40.883 18.7648 41.4981 20.3114 41.5H36.6447C38.1912 41.4981 39.6739 40.883 40.7674 39.7894C41.861 38.6959 42.4762 37.2132 42.478 35.6667V24C42.4762 22.4535 41.861 20.9708 40.7674 19.8773C39.6739 18.7837 38.1912 18.1685 36.6447 18.1667ZM27.3114 15.8333H29.6447C30.366 15.8363 31.0688 16.0621 31.6568 16.4798C32.2449 16.8974 32.6896 17.4866 32.93 18.1667H24.026C24.2665 17.4866 24.7111 16.8974 25.2992 16.4798C25.8873 16.0621 26.5901 15.8363 27.3114 15.8333ZM20.3114 20.5H36.6447C37.573 20.5 38.4632 20.8687 39.1196 21.5251C39.7759 22.1815 40.1447 23.0717 40.1447 24V27.5H16.8114V24C16.8114 23.0717 17.1801 22.1815 17.8365 21.5251C18.4929 20.8687 19.3831 20.5 20.3114 20.5ZM36.6447 39.1667H20.3114C19.3831 39.1667 18.4929 38.7979 17.8365 38.1415C17.1801 37.4852 16.8114 36.5949 16.8114 35.6667V29.8333H27.3114V31C27.3114 31.3094 27.4343 31.6062 27.6531 31.825C27.8719 32.0437 28.1686 32.1667 28.478 32.1667C28.7874 32.1667 29.0842 32.0437 29.303 31.825C29.5218 31.6062 29.6447 31.3094 29.6447 31V29.8333H40.1447V35.6667C40.1447 36.5949 39.7759 37.4852 39.1196 38.1415C38.4632 38.7979 37.573 39.1667 36.6447 39.1667Z" fill="#06C4A2"/>
</g>
<defs>
<clipPath id="clip0_3586_1704">
<rect width="28" height="28" fill="white" transform="translate(14.478 13.5)"/>
</clipPath>
</defs>
</svg>
