<svg version="1.1" id="Layer_1" xmlns:x="ns_extend;" xmlns:i="ns_ai;" xmlns:graph="ns_graphs;" xmlns="http://www.w3.org/2000/svg" xmlns:xlink="http://www.w3.org/1999/xlink" x="0px" y="0px" viewBox="0 0 109.8 75" style="enable-background:new 0 0 109.8 75;" xml:space="preserve">
 <style type="text/css">
  .st0{fill:#FFFFFF;}
	.st1{fill:#1FD9FE;}
 </style>
 <metadata>
  <sfw xmlns="ns_sfw;">
   <slices>
   </slices>
   <sliceSourceBounds bottomLeftOrigin="true" height="75" width="109.8" x="983.7" y="-92.5">
   </sliceSourceBounds>
  </sfw>
 </metadata>
 <g>
  <g>
   <path class="st0" d="M45.1,23.9c-0.8,0.5-1.9,0.3-2.5-0.6L31.2,4.6c-0.9-1.5-0.4-3.8,1.7-4.5c0.1,0,0.1,0,0.2,0h12
			c1,0,1.8,0.9,1.8,1.9v2.2c0,1-0.8,1.8-1.8,1.8h-3h-3.2l8.6,14.3c0.5,0.8,0.3,1.9-0.6,2.5L45.1,23.9z">
   </path>
   <path class="st1" d="M53.4,5.9c-1,0-1.7-0.8-1.8-1.8l0-1.9c0-1.5,1.2-2.1,2.7-2.1l21.8,0c1.8,0,3.2,1.6,2.8,3.8
			c0,0.1,0,0.1-0.1,0.2l-6,10c-0.5,0.8-1.6,1.1-2.4,0.6l-2-1.2c-0.8-0.5-1.1-1.6-0.5-2.4l3.1-5.1L53.4,5.9z">
   </path>
   <path class="st0" d="M63.6,18.1c0.5-0.8,1.6-1.1,2.4-0.6l1.7,1c1.3,0.8,1.2,2.1,0.4,3.4l-11,18.3c-0.9,1.5-2.7,1.9-4.4,0.4
			c0,0-0.1-0.1-0.1-0.2l-6-10.1c-0.4-0.9-0.1-1.9,0.8-2.3l2-1.1c0.9-0.4,1.9-0.1,2.4,0.8l3,5.1L63.6,18.1z">
   </path>
  </g>
  <g>
   <path class="st0" d="M19.8,54.2l-1.3-0.6c-0.8-0.4-1.7,0-2,0.7L16.1,55l-5.7,12.3L4.6,55l-0.4-0.7c-0.4-0.8-1.3-1.1-2-0.7
			l-1.3,0.6c-0.8,0.4-1.1,1.3-0.8,2.1L0.5,57l7.8,16.7c0.4,0.8,1.2,1.3,2.1,1.3h0h0h0c0.9,0,1.7-0.5,2.1-1.3L20.3,57l0.3-0.6
			C21,55.6,20.6,54.6,19.8,54.2z">
   </path>
   <path class="st0" d="M32.1,74.2l1.3,0.6c0.8,0.4,1.7,0,2-0.7l0.4-0.7l5.7-12.3l5.7,12.3l0.4,0.7c0.4,0.8,1.3,1.1,2,0.7l1.3-0.6
			c0.8-0.4,1.1-1.3,0.8-2.1l-0.3-0.6l-7.8-16.7c-0.4-0.8-1.2-1.3-2.1-1.3h0h0h0c-0.9,0-1.7,0.5-2.1,1.3l-7.8,16.7l-0.3,0.6
			C31,72.9,31.4,73.8,32.1,74.2z">
   </path>
   <path class="st0" d="M78.6,58c0.9,0,1.6-0.6,1.6-1.5l0-1.4c0-0.8-0.7-1.6-1.5-1.7l-0.8,0h-9c0,0-0.1,0-0.2,0
			c-2.4,0.2-5.9,1.9-5.9,5.9c0,4.1,3.5,6,5.4,6.4l4.7,1.1c0.1,0,0.1,0,0.2,0c0.3,0,1.5,0.3,1.5,1.7c0,0.8-0.4,1.3-1.3,1.5h-8.8
			l-0.6,0c-0.9,0-1.6,0.6-1.6,1.5l0,1.4c0,0.8,0.7,1.6,1.5,1.7l0.8,0h9c0.1,0,0.1,0,0.2,0c2.2-0.2,5.5-2,5.5-6.1
			c0-4.2-3.4-5.9-5.3-6.2l-4.6-1.1c0,0,0,0-0.1,0c-0.1,0-1.8-0.4-1.8-1.9c0-1,1-1.3,1.6-1.3H78L78.6,58z">
   </path>
   <path class="st0" d="M109.8,55c0-0.8-0.7-1.5-1.6-1.5h-0.7H93.1h-0.7c-0.9,0-1.5,0.7-1.6,1.5v1.5c0,0.8,0.7,1.6,1.6,1.6h1.1H98
			v14.4l0,0v0.7c0,0.9,0.7,1.5,1.5,1.6h1.5c0.8,0,1.6-0.7,1.6-1.6v-0.7l0,0V58.1h4.6h1.1c0.9,0,1.6-0.8,1.6-1.6L109.8,55z">
   </path>
  </g>
 </g>
</svg>