<svg width="393" height="679" viewBox="0 0 393 679" fill="none" xmlns="http://www.w3.org/2000/svg">
<g clip-path="url(#clip0_4121_1555)">
<path d="M-369 411.847L813.069 411.847" stroke="#AEBBB9" stroke-dasharray="5 5"/>
<path d="M-369 360.029L832.838 360.029" stroke="#AEBBB9" stroke-dasharray="5 5"/>
<path d="M-369 308.21L832.838 308.21" stroke="#AEBBB9" stroke-dasharray="5 5"/>
<path d="M-369 256.391L832.838 256.391" stroke="#AEBBB9" stroke-dasharray="5 5"/>
<path d="M-369 204.573L832.838 204.573" stroke="#AEBBB9" stroke-dasharray="5 5"/>
<path d="M-369 463.514L813.069 463.514" stroke="#AEBBB9" stroke-dasharray="5 5"/>
<path d="M-369 515.181L813.069 515.181" stroke="#AEBBB9" stroke-dasharray="5 5"/>
<path d="M-369 566.847L813.069 566.847" stroke="#AEBBB9" stroke-dasharray="5 5"/>
<path d="M829.965 245C312.308 495.728 -356.248 610.442 -356.248 610.442" stroke="url(#paint0_linear_4121_1555)" stroke-width="7" stroke-linejoin="bevel"/>
<path d="M33.0108 204.879L33.0093 613.257" stroke="#AEBBB9" stroke-dasharray="5 5"/>
<path d="M100.012 204.879L100.011 613.257" stroke="#AEBBB9" stroke-dasharray="5 5"/>
<path d="M167.014 204.879L167.012 613.257" stroke="#AEBBB9" stroke-dasharray="5 5"/>
<path d="M234.015 204.879L234.014 613.257" stroke="#AEBBB9" stroke-dasharray="5 5"/>
<path d="M301.017 204.879L301.015 613.257" stroke="#AEBBB9" stroke-dasharray="5 5"/>
<path d="M368.018 204.879L368.017 613.257" stroke="#AEBBB9" stroke-dasharray="5 5"/>
<path d="M-368.982 204.573L-368.982 584.722C-368.982 602.396 -354.655 616.722 -336.982 616.722L813.087 616.722" stroke="#AEBBB9"/>
<g filter="url(#filter0_dd_4121_1555)">
<path d="M167.014 482.869C167.014 470.791 176.805 461 188.883 461C200.961 461 210.752 470.791 210.752 482.869C210.752 494.947 200.961 504.738 188.883 504.738C176.805 504.738 167.014 494.947 167.014 482.869Z" fill="#67D9C5"/>
<path d="M191.159 478.391C191.718 478.314 192.287 478.155 192.846 477.924C193.893 477.498 194.888 476.816 195.724 475.959C196.443 475.226 197.084 474.359 197.684 473.302C198.146 472.486 198.577 471.573 199.08 470.357C199.151 470.183 199.151 469.988 199.08 469.813C199.008 469.639 198.869 469.505 198.695 469.439C197.951 469.136 197.166 468.998 196.355 469.018C195.601 469.039 194.837 469.198 194.093 469.495C192.672 470.06 191.394 471.075 190.497 472.363C190.071 472.974 189.702 473.656 189.404 474.384C189.132 475.062 188.911 475.795 188.747 476.575C188.686 476.857 188.64 477.15 188.593 477.447C188.219 476.518 187.732 475.703 187.126 475.041C186.367 474.205 185.356 473.594 184.284 473.322C183.72 473.179 183.155 473.138 182.606 473.194C182.016 473.256 181.462 473.43 180.954 473.717C180.801 473.799 180.693 473.943 180.647 474.107C180.601 474.277 180.621 474.456 180.708 474.605C181.175 475.415 181.56 476.016 181.965 476.549C182.483 477.242 183.022 477.801 183.597 478.258C184.248 478.766 185.105 479.15 186.013 479.335C186.736 479.484 187.449 479.504 188.111 479.397C188.193 479.766 188.26 480.161 188.311 480.571H179.887C179.297 480.571 178.82 481.054 178.82 481.638V482.967C178.82 483.557 179.297 484.034 179.887 484.034H180.718L183.278 496.655C183.345 496.988 183.653 497.229 184.002 497.229H193.026C193.375 497.229 193.677 496.988 193.744 496.655L196.309 484.034H197.14C197.73 484.034 198.207 483.557 198.207 482.967V481.638C198.207 481.054 197.73 480.571 197.14 480.571H189.445C189.435 479.812 189.455 479.084 189.527 478.406C190.056 478.473 190.604 478.468 191.159 478.391ZM193.262 493.761H183.771V493.812L181.786 484.034H195.237L193.262 493.761ZM197.14 481.623C197.14 481.623 197.161 481.628 197.161 481.638V482.967C197.161 482.967 197.151 482.988 197.14 482.988H179.887C179.887 482.988 179.867 482.977 179.867 482.967V481.638C179.867 481.638 179.877 481.623 179.887 481.623H197.14Z" fill="#000B31"/>
</g>
<rect x="93.4385" y="529.773" width="191.077" height="68" rx="8" fill="white"/>
<g clip-path="url(#clip1_4121_1555)">
<path d="M136.479 552.573V552.048C136.479 551.948 136.41 551.873 136.319 551.873H115.338C115.247 551.873 115.179 551.948 115.179 552.048V575.298C115.179 575.373 115.224 575.448 115.27 575.473C115.293 575.473 115.316 575.473 115.338 575.473C115.384 575.473 136.502 575.473 136.547 575.473C136.57 575.473 136.593 575.473 136.616 575.473C136.684 575.448 136.707 575.373 136.707 575.298V563.273C136.707 563.173 136.639 563.098 136.547 563.098H136.068C135.977 563.098 135.909 563.173 135.909 563.273V574.648H116V552.748H136.342C136.41 552.748 136.479 552.673 136.479 552.573Z" fill="#06C4A2"/>
<path d="M119.717 556.848H132.579C132.671 556.848 132.739 556.773 132.739 556.673V556.148C132.739 556.048 132.671 555.973 132.579 555.973H119.079C118.987 555.973 118.919 556.048 118.919 556.148V571.223C118.919 571.298 118.965 571.373 119.01 571.398C119.033 571.398 119.056 571.398 119.079 571.398C119.124 571.398 132.785 571.398 132.83 571.398C132.853 571.398 132.876 571.398 132.899 571.398C132.967 571.373 132.99 571.298 132.99 571.223V563.248C132.99 563.148 132.921 563.073 132.83 563.073H132.351C132.26 563.073 132.192 563.148 132.192 563.248V570.573H119.717V556.848Z" fill="#06C4A2"/>
<path d="M140.287 563.073H139.808C139.717 563.073 139.649 563.148 139.649 563.248V578.748H112.237V548.648H140.036C140.128 548.648 140.196 548.573 140.196 548.473V547.948C140.196 547.848 140.128 547.773 140.036 547.773H111.598C111.507 547.773 111.438 547.848 111.438 547.948V579.398C111.438 579.473 111.484 579.548 111.53 579.573C111.553 579.573 111.575 579.573 111.598 579.573C111.644 579.573 140.242 579.573 140.287 579.573C140.31 579.573 140.333 579.573 140.356 579.573C140.424 579.548 140.447 579.473 140.447 579.398V563.248C140.447 563.148 140.379 563.073 140.287 563.073Z" fill="#06C4A2"/>
<path d="M159.832 563.678H164.096V564.403C164.096 567.253 162.614 569.128 160.06 569.128C157.3 569.128 155.59 566.953 155.59 564.203C155.59 561.428 157.346 559.253 160.105 559.253C162.317 559.253 163.298 560.478 163.298 560.478L162.591 561.478C162.591 561.478 161.679 560.478 160.105 560.478C158.076 560.478 156.799 562.128 156.799 564.203C156.799 566.253 158.007 567.903 160.037 567.903C161.725 567.903 162.842 566.703 162.888 564.953V564.828H159.854V563.678H159.832Z" fill="#000B31" stroke="#000B31" stroke-width="0.461047" stroke-miterlimit="10"/>
<path d="M176.16 562.653C176.16 564.153 175.407 565.153 174.221 565.603V565.678L176.456 568.678V568.928H175.156L172.898 565.853H170.276V568.928H169.09V559.478H172.693C174.837 559.478 176.16 560.603 176.16 562.653ZM172.67 560.653H170.276V564.678H172.784C174.039 564.678 174.928 564.053 174.928 562.678C174.928 561.328 174.039 560.653 172.67 560.653Z" fill="#000B31" stroke="#000B31" stroke-width="0.461047" stroke-miterlimit="10"/>
<path d="M187.22 564.828H182.682V567.728H187.904V568.903H181.496V559.453H187.904V560.628H182.682V563.653H187.22V564.828Z" fill="#000B31" stroke="#000B31" stroke-width="0.461047" stroke-miterlimit="10"/>
<path d="M199.01 564.828H194.472V567.728H199.694V568.903H193.286V559.453H199.694V560.628H194.472V563.653H199.01V564.828Z" fill="#000B31" stroke="#000B31" stroke-width="0.461047" stroke-miterlimit="10"/>
<path d="M212.647 568.928H212.328L206.216 562.153V568.928H205.03V559.478H205.35L211.439 566.178V559.478H212.624V568.928H212.647Z" fill="#000B31" stroke="#000B31" stroke-width="0.461047" stroke-miterlimit="10"/>
<path d="M218.1 559.478H224.508V560.653H219.285V563.678H223.869V564.828H219.285V568.928H218.1V559.478Z" fill="#000B31" stroke="#000B31" stroke-width="0.461047" stroke-miterlimit="10"/>
<path d="M230.619 568.928H229.433V559.478H230.619V568.928Z" fill="#000B31" stroke="#000B31" stroke-width="0.461047" stroke-miterlimit="10"/>
<path d="M241.543 564.828H237.004V567.728H242.227V568.903H235.818V559.453H242.227V560.628H237.004V563.653H241.543V564.828Z" fill="#000B31" stroke="#000B31" stroke-width="0.461047" stroke-miterlimit="10"/>
<path d="M247.449 568.928V559.478H248.635V567.728H253.561V568.903H247.449V568.928Z" fill="#000B31" stroke="#000B31" stroke-width="0.461047" stroke-miterlimit="10"/>
<path d="M261.498 568.928H258.419V559.478H261.498C264.234 559.478 266.082 561.328 266.082 564.203C266.082 567.078 264.257 568.928 261.498 568.928ZM259.605 560.653V567.728H261.429C263.391 567.728 264.896 566.428 264.896 564.178C264.896 561.928 263.413 560.628 261.429 560.628H259.605V560.653Z" fill="#000B31" stroke="#000B31" stroke-width="0.461047" stroke-miterlimit="10"/>
</g>
</g>
<defs>
<filter id="filter0_dd_4121_1555" x="143.322" y="450.977" width="91.1214" height="91.1214" filterUnits="userSpaceOnUse" color-interpolation-filters="sRGB">
<feFlood flood-opacity="0" result="BackgroundImageFix"/>
<feColorMatrix in="SourceAlpha" type="matrix" values="0 0 0 0 0 0 0 0 0 0 0 0 0 0 0 0 0 0 127 0" result="hardAlpha"/>
<feMorphology radius="3.64486" operator="erode" in="SourceAlpha" result="effect1_dropShadow_4121_1555"/>
<feOffset dy="7.28971"/>
<feGaussianBlur stdDeviation="6.83411"/>
<feComposite in2="hardAlpha" operator="out"/>
<feColorMatrix type="matrix" values="0 0 0 0 0.0235294 0 0 0 0 0.768627 0 0 0 0 0.635294 0 0 0 0.1 0"/>
<feBlend mode="normal" in2="BackgroundImageFix" result="effect1_dropShadow_4121_1555"/>
<feColorMatrix in="SourceAlpha" type="matrix" values="0 0 0 0 0 0 0 0 0 0 0 0 0 0 0 0 0 0 127 0" result="hardAlpha"/>
<feMorphology radius="3.64486" operator="erode" in="SourceAlpha" result="effect2_dropShadow_4121_1555"/>
<feOffset dy="13.6682"/>
<feGaussianBlur stdDeviation="13.6682"/>
<feComposite in2="hardAlpha" operator="out"/>
<feColorMatrix type="matrix" values="0 0 0 0 0.0478442 0 0 0 0 0.468604 0 0 0 0 0.39331 0 0 0 0.2 0"/>
<feBlend mode="normal" in2="effect1_dropShadow_4121_1555" result="effect2_dropShadow_4121_1555"/>
<feBlend mode="normal" in="SourceGraphic" in2="effect2_dropShadow_4121_1555" result="shape"/>
</filter>
<linearGradient id="paint0_linear_4121_1555" x1="-355.083" y1="617.543" x2="880.322" y2="335.427" gradientUnits="userSpaceOnUse">
<stop stop-color="#C0F1E8"/>
<stop offset="0.573188" stop-color="#06C4A2"/>
<stop offset="1" stop-color="#C0F1E8"/>
</linearGradient>
<clipPath id="clip0_4121_1555">
<rect width="393" height="679" fill="white"/>
</clipPath>
<clipPath id="clip1_4121_1555">
<rect width="155.077" height="32" fill="white" transform="translate(111.438 547.773)"/>
</clipPath>
</defs>
</svg>
